<svg width="22" height="22" xmlns="http://www.w3.org/2000/svg"><g fill="none" fill-rule="evenodd"><path d="M20.372 0H1.624C.728 0 0 .71 0 1.586v18.826C0 21.29.728 22 1.624 22h18.748c.897 0 1.628-.711 1.628-1.588V1.586C22 .71 21.269 0 20.372 0" fill="#0071A1"/><path d="M5 3c1.104 0 2 .863 2 1.925 0 1.063-.896 1.927-2 1.927-1.105 0-2-.864-2-1.927C3 3.863 3.895 3 5 3zM3.276 19h3.45V8.313h-3.45V19zM9 8.267h3.076v1.466h.043C12.547 8.89 13.593 8 15.153 8 18.4 8 19 10.223 19 13.113V19h-3.205v-5.22c0-1.245-.022-2.846-1.666-2.846-1.669 0-1.924 1.356-1.924 2.756V19H9V8.267" fill="#FFFFFE"/></g></svg>